<!DOCTYPE svg PUBLIC "-//W3C//DTD SVG 1.1//EN" "http://www.w3.org/Graphics/SVG/1.1/DTD/svg11.dtd">
<!-- Uploaded to: SVG Repo, www.svgrepo.com, Transformed by: SVG Repo Mixer Tools -->
<svg height="64px" width="64px" version="1.1" id="_x32_" xmlns="http://www.w3.org/2000/svg" xmlns:xlink="http://www.w3.org/1999/xlink" viewBox="-51.2 -51.2 614.40 614.40" xml:space="preserve" fill="#000000" stroke="#000000" transform="rotate(0)matrix(1, 0, 0, 1, 0, 0)">
<g id="SVGRepo_bgCarrier" stroke-width="0" transform="translate(0,0), scale(1)">
<rect x="-51.2" y="-51.2" width="614.40" height="614.40" rx="0" fill="#7ec7ec" strokewidth="0"/>
</g>
<g id="SVGRepo_tracerCarrier" stroke-linecap="round" stroke-linejoin="round" stroke="#CCCCCC" stroke-width="4.096"/>
<g id="SVGRepo_iconCarrier"> <style type="text/css"> .st0{fill:#1a06b1;} </style> <g> <path class="st0" d="M215.736,361.283c0-36.31,14.115-70.422,39.749-96.048c13.081-13.072,28.379-23.108,45.031-29.836 c3.966-11.08,7.217-24.029,9.642-37.795c11.54-4.117,18.118-10.703,26.349-39.524c8.758-30.701-13.174-29.658-13.174-29.658 c17.741-58.704-5.6-113.874-44.712-109.824c-26.97-47.183-117.294,10.779-145.598,6.738c0,16.182,6.728,28.314,6.728,28.314 c-9.83,18.681-6.033,55.932-3.271,74.773c-1.597-0.028-21.425,0.179-13.024,29.658c8.232,28.821,14.828,35.407,26.35,39.524 c4.943,28.003,13.25,52.708,24.207,64.878c0,14.594,0,25.24,0,33.764c0,12.865-29.319,34.534-46.534,40.605 C91.938,349.368,4.582,385.368,10.22,452.802c1.354,16.182,90.326,32.974,219.761,32.974c22.76,0,44.167-0.544,64.164-1.484 c-14.171-6.616-27.27-15.572-38.66-26.942C229.851,431.715,215.736,397.594,215.736,361.283z"/> <path class="st0" d="M493.326,469.83l-51.928-50.575c11.089-17.113,17.066-37.063,17.066-57.972 c0-28.604-11.108-55.461-31.293-75.637c-20.166-20.176-47.023-31.293-75.628-31.293c-28.604,0-55.461,11.117-75.646,31.293 c-20.166,20.176-31.292,47.033-31.292,75.637c0,28.605,11.126,55.472,31.292,75.647c20.186,20.176,47.042,31.292,75.646,31.292 c20.919,0,40.859-5.995,57.98-17.084l50.556,51.91c9.417,11.36,23.324,12.037,34.075,1.288 C504.923,493.594,504.678,479.227,493.326,469.83z M392.119,401.87c-10.844,10.835-25.24,16.802-40.577,16.802 c-15.317,0-29.732-5.977-40.577-16.812c-10.844-10.834-16.802-25.25-16.802-40.577c0-15.326,5.958-29.732,16.802-40.567 c10.845-10.834,25.241-16.811,40.577-16.811c15.318,0,29.733,5.976,40.577,16.811C414.485,343.09,414.485,379.495,392.119,401.87z"/> </g> </g>
</svg>